<svg width="500" height="110" viewBox="0 0 500 110" fill="none" xmlns="http://www.w3.org/2000/svg">
<path d="M9.4 10.3C9.9 9.49999 10.4 8.8 10.9 8.09999C14 7.9 16.1 8.99999 17.1 12C19.3 18 23 23.2 25 29.3C25 29.5 25.4 29.7 25.7 29.9C26 29.6 26.3 29.4 26.4 29.1C28.4 22.7 31.3 16.7 32.8 10.1C33.1 8.9 34 7.7 34.9 6.69999C36.2 5.29999 38.2 5.69999 38.9 7.59999C39.3 8.6 39.4 9.8 39.2 10.8C38.4 14.2 37.4 17.5 36.4 20.8C34.8 25.8 33.4 30.9 31.3 35.7C28.8 41.6 28.4 47.5 28.7 53.7C29.1 60.7 29.2 67.7 29.4 74.7C29.5 76.3 29.6 77.8 29.7 79.4C30 82.2 26.8 85.1 24 84.5C22.5 84.2 20.4 81.2 20.3 79.4C20.1 76.1 19.8 72.7 20.2 69.6C20.8 63.7 20.3 57.9 20.7 52.1C20.9 49.9 21.1 47.7 21.2 45.5C21.3 43.2 20.7 41.2 19.4 39.2C18.3 37.3 17.9 35 17.1 32.9C16.3 30.8 15.3 28.6 14.5 26.5C13.4 23.6 12.2 20.7 11.3 17.7C10.5 15.4 10 13 9.4 10.3ZM120.437 74.5C122.537 75.3 124.537 75.8 126.937 75.3C128.737 74.9 130.837 75.6 132.837 75.8C134.237 75.9 134.737 76.9 134.837 78C135.037 79.3 135.337 80.8 133.837 81.7C132.437 82.5 131.037 83.5 129.137 82.9C128.537 82.8 127.837 82.8 127.237 83C123.937 83.8 120.637 83.4 117.337 83.1C115.237 82.9 113.537 81.6 112.837 79.6C112.437 78.4 112.037 77.2 112.037 76C111.937 70.9 111.937 65.7 112.137 60.6C112.237 55.6 112.437 50.6 112.737 45.7C112.837 43.7 113.237 41.7 113.437 39.7C113.537 39.3 113.737 38.8 113.837 38.4C114.337 37.4 115.037 36.8 116.237 36.8C117.337 36.9 118.237 37.4 118.537 38.4C119.037 40.1 119.337 41.9 119.537 43.7C120.437 53.5 120.137 63.3 120.137 73.2C120.137 73.6 120.337 74 120.437 74.5ZM162.331 70.8C162.231 72.1 162.131 73.1 162.031 74.1C162.031 75.8 162.231 77.5 161.931 79.1C161.131 82.9 161.531 84.5 155.931 84.3C154.331 83 153.731 81.3 154.031 79.3C154.231 77.8 154.331 76.4 154.331 74.9C154.431 73.1 154.631 71.4 154.531 69.6C154.431 65.3 154.131 61.1 154.031 56.8C153.931 52.8 153.931 48.8 153.931 44.8C153.931 43.8 153.831 42.8 153.931 41.8C154.031 38.3 155.031 37.4 158.731 37.5C161.331 39.6 160.931 42.7 161.231 45.5C161.531 48.1 161.531 50.8 161.531 53.5C163.331 53.8 163.931 52.6 164.631 51.7C167.931 47.9 170.631 43.6 174.431 40.2C175.131 39.5 175.831 38.8 176.631 38.1C177.531 37.3 178.631 37.2 179.631 38C180.731 38.7 181.031 39.7 180.831 40.9C180.731 41.3 180.531 41.8 180.231 42.1C176.831 47.1 173.331 52 169.831 56.9C169.131 57.8 168.231 58.5 167.531 59.4C167.131 60 166.831 60.7 166.531 61.5C167.431 62.1 168.131 62.6 168.831 63.1C172.331 65.1 175.531 67.5 177.931 70.8C178.531 71.7 179.431 72.6 180.331 73C182.531 74 183.831 75.8 185.431 77.4C186.731 78.6 187.131 80.2 187.131 82C187.131 83.5 186.731 84.8 185.131 85.4C183.431 86.1 181.831 86.3 180.331 85.1C180.031 84.8 179.731 84.5 179.431 84.1C178.031 82.5 176.231 81.4 174.531 80.2C172.231 78.6 170.431 76.4 168.531 74.3C166.931 72.4 164.631 72.1 162.331 70.8ZM241.766 60.1C242.666 58.3 243.666 56.6 244.266 54.7C245.566 51 246.666 47.3 247.866 43.6C248.066 43 248.166 42.5 248.466 42C249.666 40.1 250.366 38.1 250.566 35.8C250.666 34 251.766 32.3 253.766 31.4C256.066 30.5 257.966 30.9 259.366 32.9C260.166 34 260.866 35.2 261.166 36.5C262.066 40.6 263.166 44.7 265.166 48.5C265.666 49.3 265.566 50.4 265.866 51.4C266.466 53.5 266.566 55.9 268.266 57.7C268.666 57.5 268.966 57.4 268.966 57.2C269.366 53.8 269.566 50.3 269.966 46.9C270.466 42.8 271.066 38.8 271.566 34.7C271.966 31.9 272.266 29.2 272.566 26.4C273.066 22.7 273.566 18.9 274.066 15.2C274.166 14.5 274.566 13.8 274.466 13.2C274.166 10.3 275.466 7.99999 277.166 5.6C277.666 5.6 278.266 5.5 278.966 5.4C281.466 5.2 282.866 6.4 283.466 8.7C284.566 12.6 283.266 16.2 282.166 19.8C281.866 20.9 281.366 21.9 281.366 23C281.466 28.4 280.366 33.7 279.666 39C279.066 43.8 278.566 48.7 277.966 53.6C277.866 54.1 277.966 54.7 277.766 55.2C276.466 58.6 276.366 62.2 275.866 65.7C275.766 66.7 275.466 67.7 275.366 68.7C275.066 70.5 274.866 72.4 274.566 74.3C274.366 75.7 274.366 77.2 273.966 78.6C272.966 82.1 268.966 83.1 266.266 80.6C264.566 79 263.866 76.9 263.166 74.8C261.566 70.1 260.166 65.5 258.766 60.8C258.266 59.2 258.266 57.5 257.866 55.8C257.366 53.6 256.666 51.4 255.966 49C254.566 49.5 254.066 50.3 253.866 51.3C252.166 58.2 248.866 64.6 246.566 71.4C245.666 73.9 244.866 76.4 243.866 78.9C243.366 80 242.666 81.1 241.866 81.9C239.366 84.1 235.866 83.3 234.766 80.2C233.866 77.7 233.166 75 232.966 72.4C232.666 67.4 231.566 62.5 231.066 57.5C230.866 55.6 230.866 53.5 230.866 51.5C230.666 45.7 230.366 40 229.066 34.3C228.766 33 228.966 31.6 228.866 30.3C228.466 25.6 227.966 20.8 227.566 16.1C227.366 14.5 227.366 12.9 227.466 11.4C227.466 9.89999 228.866 8.09999 230.066 7.8C231.466 7.59999 233.466 8.6 234.066 10.2C235.666 14.6 236.566 19 236.966 23.6C237.066 24.4 237.066 25.2 236.966 26C236.566 31.1 237.466 36.2 238.466 41.3C239.166 45.3 239.666 49.4 240.266 53.5C240.566 55.7 240.866 57.9 241.166 60.1C241.366 60.1 241.566 60.1 241.766 60.1ZM337.659 57.4C337.259 60.2 337.159 62.8 336.559 65.2C335.959 67.4 335.059 69.7 333.659 71.5C331.059 75 328.459 78.6 324.359 80.5C323.959 80.7 323.559 81.1 323.159 81.1C320.159 81.1 317.259 82.1 314.259 81.1C313.659 80.9 312.959 80.7 312.459 80.4C308.559 78.1 305.759 74.9 303.659 71C303.459 70.8 303.359 70.4 303.259 70.1C302.559 64.5 302.159 58.8 304.259 53.3C306.059 48.7 308.959 44.7 313.159 41.9C314.659 41 316.359 40.4 318.059 39.8C318.559 39.6 319.159 39.5 319.659 39.6C322.259 40 324.959 40.3 327.559 41C332.659 42.2 335.359 45.9 336.759 50.6C337.359 52.9 337.359 55.2 337.659 57.4ZM329.959 56C329.959 50.6 328.659 48.4 325.359 47.1C320.459 45.2 317.959 45.7 314.559 49.9C313.159 51.6 312.059 53.4 311.559 55.7C310.859 58.5 311.359 61.3 310.959 64C310.459 67.2 313.559 71.8 316.759 72.3C318.459 72.6 320.259 72.9 321.659 71.8C323.559 70.3 325.259 68.5 326.759 66.6C329.459 63.3 329.559 59.2 329.959 56ZM372.868 64.4C372.968 64.7 372.968 64.8 373.068 64.9C376.768 67.7 380.468 70.5 384.268 73.2C385.968 74.5 387.168 75.8 386.868 78.2C386.368 80.7 384.568 82 382.068 81.3C379.968 80.7 378.268 79.4 376.768 77.9C374.668 75.9 372.668 73.8 370.568 72C369.168 70.8 367.668 69.9 365.568 69.8C365.268 70.4 364.868 71 364.768 71.6C364.668 73.6 364.768 75.8 364.468 77.8C364.368 79.1 363.968 80.5 363.168 81.5C361.168 84.1 358.168 83.5 357.068 80.4C356.768 79.7 356.468 78.9 356.568 78.1C356.668 75.8 356.868 73.5 357.268 71.2C358.068 67.1 358.068 63 358.068 58.9C357.968 56.5 358.268 54.1 358.468 51.6C358.668 48.4 358.868 45.2 359.168 42C359.368 39.5 360.468 38.5 362.868 38.9C364.468 39.1 366.168 38.7 367.768 38.8C370.468 39 373.268 39.7 375.968 40C377.768 40.2 379.468 40.6 380.868 41.8C382.168 42.9 383.268 44.2 383.668 45.9C384.268 49.1 384.368 52.2 382.968 55.4C381.168 59.1 378.768 61.9 374.768 63.2C374.068 63.5 373.468 64 372.868 64.4ZM365.868 60.2V60.1C367.768 59.4 369.368 58.8 370.868 58.1C371.968 57.7 373.168 57.3 374.068 56.5C376.968 54.1 378.068 51 377.068 47.3C374.568 45.9 368.768 44.9 365.868 45.3C365.968 50.2 365.668 55 365.868 60.2ZM435.987 62.4C434.987 68.7 432.987 74.5 427.787 78.9C424.987 81.2 421.587 82.3 418.087 83.2C415.487 83.8 412.887 83.3 410.187 83.2C408.687 83.2 407.287 81.5 407.087 79.4C406.687 77 406.487 74.5 406.287 72.1C406.087 70.2 405.987 68.4 405.787 66.5C405.787 66.2 405.687 65.8 405.787 65.5C406.687 59.7 406.187 53.9 406.287 48.2C406.287 46.4 406.287 44.6 406.387 42.8C406.487 40.4 407.687 39.3 409.987 38.8C414.287 37.9 418.187 39.1 422.187 40.7C429.787 43.6 433.887 49.2 435.287 56.9C435.687 58.7 435.687 60.4 435.987 62.4ZM412.787 44.8C412.687 45.3 412.487 45.7 412.487 46C413.587 50 413.287 54.1 413.287 58.1C413.287 59.9 413.787 61.7 413.587 63.4C413.187 67.1 413.787 70.7 414.287 74.4C414.487 75.8 415.187 76.3 416.487 76.3C417.187 76.3 417.987 76.2 418.787 75.9C424.987 73.9 428.787 69.5 430.287 63.2C430.987 60.7 430.687 58.2 429.787 55.6C428.787 53 426.987 51.4 425.087 49.8C423.587 48.5 421.987 47.7 419.987 47.4C418.387 47.2 416.887 46.4 415.287 45.9C414.487 45.6 413.687 45.2 412.787 44.8ZM489.808 57.4C489.408 60.2 489.308 62.8 488.708 65.2C488.108 67.4 487.208 69.7 485.808 71.5C483.208 75 480.608 78.6 476.508 80.5C476.108 80.7 475.708 81.1 475.308 81.1C472.308 81.1 469.408 82.1 466.408 81.1C465.808 80.9 465.108 80.7 464.608 80.4C460.708 78.1 457.908 74.9 455.808 71C455.608 70.8 455.508 70.4 455.408 70.1C454.708 64.5 454.308 58.8 456.408 53.3C458.208 48.7 461.108 44.7 465.308 41.9C466.808 41 468.508 40.4 470.208 39.8C470.708 39.6 471.308 39.5 471.808 39.6C474.408 40 477.108 40.3 479.708 41C484.808 42.2 487.508 45.9 488.908 50.6C489.508 52.9 489.508 55.2 489.808 57.4ZM482.108 56C482.108 50.6 480.808 48.4 477.508 47.1C472.608 45.2 470.108 45.7 466.708 49.9C465.308 51.6 464.208 53.4 463.708 55.7C463.008 58.5 463.508 61.3 463.108 64C462.608 67.2 465.708 71.8 468.908 72.3C470.608 72.6 472.408 72.9 473.808 71.8C475.708 70.3 477.408 68.5 478.908 66.6C481.608 63.3 481.708 59.2 482.108 56Z" fill="#1559DE"/>
<path d="M93.1281 57.4C92.7281 60.2 92.6281 62.8 92.0281 65.2C91.4281 67.4 90.5281 69.7 89.1281 71.5C86.5281 75 83.9281 78.6 79.8281 80.5C79.4281 80.7 79.0281 81.1 78.6281 81.1C75.6281 81.1 72.7281 82.1 69.7281 81.1C69.1281 80.9 68.4281 80.7 67.9281 80.4C64.0281 78.1 61.2281 74.9 59.1281 71C58.9281 70.8 58.8281 70.4 58.7281 70.1C58.0281 64.5 57.6281 58.8 59.7281 53.3C61.5281 48.7 64.4281 44.7 68.6281 41.9C70.1281 41 71.8281 40.4 73.5281 39.8C74.0281 39.6 74.6281 39.5 75.1281 39.6C77.7281 40 80.4281 40.3 83.0281 41C88.1281 42.2 90.8281 45.9 92.2281 50.6C92.8281 52.9 92.8281 55.2 93.1281 57.4ZM85.4281 56C85.4281 50.6 84.1281 48.4 80.8281 47.1C75.9281 45.2 73.4281 45.7 70.0281 49.9C68.6281 51.6 67.5281 53.4 67.0281 55.7C66.3281 58.5 66.8281 61.3 66.4281 64C65.9281 67.2 69.0281 71.8 72.2281 72.3C73.9281 72.6 75.7281 72.9 77.1281 71.8C79.0281 70.3 80.7281 68.5 82.2281 66.6C84.9281 63.3 85.0281 59.2 85.4281 56Z" fill="#F6BF6C"/>
<ellipse cx="75" cy="59" rx="13" ry="16" fill="#F6BF6C"/>
</svg>
